# Blender 3.3.1
# www.blender.org
mtllib LogModel.mtl
o Cylinder
v 0.000000 0.001204 -0.075788
v 0.000000 1.667431 -0.073306
v 0.065644 0.001204 -0.023420
v 0.063494 1.667431 -0.022653
v 0.040570 0.001204 0.061314
v 0.039242 1.667431 0.059306
v -0.040570 0.001204 0.061314
v -0.039242 1.667431 0.059306
v -0.065644 0.001204 -0.023420
v -0.063494 1.667431 -0.022653
v -0.024299 0.818134 -0.084604
v 0.113255 0.824664 -0.010497
v 0.015861 0.912933 0.099521
v -0.011953 0.902162 0.091384
v -0.102799 0.813576 -0.033728
v -0.068624 1.378881 -0.105099
v 0.083318 1.457588 -0.029725
v 0.051493 1.457588 0.077822
v -0.051493 1.457588 0.077822
v -0.078541 1.378336 -0.096551
v 0.098494 1.278143 -0.019796
v 0.066669 1.278143 0.087751
v -0.051493 1.277904 0.077822
v -0.078093 1.363774 -0.097376
v -0.068176 1.364319 -0.105924
v 0.083318 0.571817 -0.029725
v 0.051493 0.571817 0.077822
v -0.051493 0.538089 0.077822
v -0.073341 0.446990 -0.079712
v -0.057824 0.446983 -0.092090
v 0.067351 0.311882 -0.040600
v 0.035527 0.311882 0.066947
v -0.079540 0.302982 0.099291
v -0.077207 0.426167 -0.078777
v -0.059179 0.427854 -0.093016
v 0.083318 1.021131 -0.029725
v 0.013340 0.927525 0.091737
v -0.015525 0.929132 0.098877
v -0.115908 1.023989 -0.013480
v -0.004818 1.022985 -0.118235
v -0.086862 1.276976 -0.030593
v -0.003544 1.276976 -0.097061
v 0.083318 1.667431 -0.029725
v 0.000000 1.667431 -0.096193
v 0.051493 1.667431 0.077822
v -0.051493 1.667431 0.077822
v -0.083318 1.667431 -0.029725
v 0.000000 0.001204 -0.096193
v 0.083318 0.001204 -0.029725
v 0.051493 0.001204 0.077822
v -0.051493 0.001204 0.077822
v -0.083318 0.001204 -0.029725
v 0.051493 1.021131 0.077822
v 0.081430 0.824664 0.097050
v -0.084083 1.023989 0.094068
v -0.051493 0.794374 0.077822
v 0.008001 0.928002 0.181837
v 0.010522 0.913409 0.189621
v -0.012743 0.929609 0.195079
v -0.009172 0.902639 0.187585
v 0.008159 0.913079 0.127119
v -0.015731 0.902308 0.118982
v 0.005638 0.927671 0.119335
v -0.019303 0.929278 0.126475
v 0.004484 0.913250 0.153265
v 0.001963 0.927842 0.145481
v -0.011080 0.929450 0.158900
v -0.007509 0.902480 0.151407
v 0.004939 0.923824 0.215352
v 0.009981 0.913655 0.222403
v -0.014594 0.925102 0.221027
v -0.013544 0.902885 0.214266
v -0.015967 0.311882 -0.107068
v 0.000000 0.538089 -0.096193
v -0.083318 0.538089 -0.029725
v -0.127331 0.301543 -0.019131
v -0.067370 0.427249 -0.107245
v -0.066014 0.446379 -0.106320
v -0.081532 0.446386 -0.093942
v -0.085398 0.425562 -0.093006
v -0.105043 0.432669 -0.151190
v -0.106824 0.448451 -0.147733
v -0.121270 0.450346 -0.138594
v -0.122546 0.431497 -0.139767
v -0.089809 0.452292 -0.138007
v -0.105327 0.452300 -0.125629
v -0.108424 0.430237 -0.117864
v -0.091164 0.433163 -0.138932
v -0.099833 0.450288 -0.106531
v -0.103699 0.429464 -0.105596
v -0.084315 0.450281 -0.118909
v -0.085670 0.431152 -0.119834
v -0.003544 1.276976 -0.097061
v -0.034819 1.456941 -0.130712
v -0.118137 1.456941 -0.064244
v -0.086862 1.276976 -0.030593
v -0.090423 1.365094 -0.131685
v -0.093112 1.378165 -0.126593
v -0.103384 1.376723 -0.120144
v -0.102581 1.363058 -0.118870
v -0.124220 1.366073 -0.164221
v -0.124669 1.380635 -0.163396
v -0.134586 1.380090 -0.154847
v -0.134137 1.365528 -0.155673
v -0.104208 1.378642 -0.137064
v -0.116385 1.363811 -0.140135
v -0.093826 1.366308 -0.151269
v -0.094274 1.380870 -0.150444
v -0.089217 1.364161 -0.110257
v -0.076908 1.361516 -0.118813
v -0.077357 1.376078 -0.117988
v -0.087274 1.375533 -0.109440
vn 0.6392 0.0102 -0.7690
vn 0.9589 -0.0000 0.2838
vn -0.0000 -0.0000 1.0000
vn -0.0000 1.0000 -0.0000
vn -0.9293 0.0469 0.3665
vn -0.6076 0.2254 -0.7616
vn -0.0000 -1.0000 -0.0000
vn -0.5860 -0.0351 -0.8095
vn -0.9354 -0.0316 0.3521
vn -0.0722 -0.0334 0.9968
vn 0.9503 -0.1339 0.2812
vn 0.5308 0.0433 -0.8464
vn -0.0598 -0.9974 -0.0400
vn -0.9251 -0.0452 0.3770
vn -0.0449 0.0257 0.9987
vn 0.9544 0.0963 0.2824
vn 0.6292 -0.0129 -0.7771
vn 0.6569 0.0247 -0.7535
vn 0.9567 -0.0674 0.2831
vn 0.0250 0.0100 0.9996
vn -0.9463 0.1344 0.2939
vn -0.6601 0.0455 -0.7498
vn 0.6244 -0.0061 -0.7811
vn 0.9565 -0.0706 0.2830
vn 0.1451 0.0083 0.9894
vn -0.9307 0.1644 0.3269
vn 0.0871 -0.9962 -0.0078
vn -0.6182 -0.0610 -0.7836
vn -0.9350 -0.1295 0.3302
vn 0.1470 -0.0065 0.9891
vn 0.9572 0.0591 0.2833
vn 0.6236 0.0047 -0.7817
vn -0.6342 -0.0152 -0.7730
vn -0.9312 -0.1251 0.3424
vn 0.5645 -0.8249 -0.0304
vn 0.9447 0.1713 0.2796
vn 0.5834 -0.0911 -0.8071
vn -0.0059 1.0000 -0.0069
vn 0.1469 0.1478 0.9780
vn -0.1534 -0.1125 0.9817
vn -0.1423 -0.0994 0.9848
vn 0.1430 0.1207 0.9823
vn 0.1426 0.9776 0.1546
vn 0.9831 0.0826 -0.1636
vn 0.0872 0.9961 -0.0096
vn -0.9919 -0.1188 -0.0451
vn -0.9865 -0.0933 -0.1345
vn 0.0616 0.9981 0.0075
vn 0.9206 0.2953 0.2554
vn 0.3617 -0.9288 0.0801
vn -0.9508 -0.1932 0.2421
vn 0.0779 0.9969 -0.0119
vn 0.9621 0.2376 0.1337
vn 0.5216 -0.8524 -0.0355
vn -0.0567 -0.0017 0.9984
vn -0.9909 -0.0578 -0.1218
vn 0.4374 -0.8982 0.0436
vn 0.9413 0.3299 0.0707
vn -0.1625 0.0588 -0.9850
vn -0.5866 0.3392 -0.7354
vn -0.8856 0.1450 -0.4412
vn -0.6068 -0.1311 -0.7839
vn -0.0578 0.9842 -0.1675
vn -0.0229 0.9993 -0.0293
vn -0.8557 0.1807 0.4849
vn 0.8667 -0.0373 -0.4973
vn -0.5366 0.1041 -0.8374
vn -0.7464 0.1829 0.6399
vn 0.5661 0.1095 -0.8171
vn 0.0547 -0.9962 -0.0672
vn 0.0315 -0.9946 -0.0985
vn 0.9581 -0.0543 -0.2813
vn -0.9229 0.2147 0.3197
vn 0.0683 0.9940 0.0851
vn 0.1128 0.9836 0.1409
vn -0.5413 0.1378 0.8295
vn 0.5667 -0.0003 -0.8239
vn -0.0688 -0.9768 -0.2028
vn -0.1822 -0.1924 -0.9642
vn -0.6269 0.0101 -0.7791
vn -0.8701 -0.2166 -0.4426
vn -0.5500 -0.4749 -0.6870
vn -0.5603 0.1149 0.8203
vn 0.0123 0.9890 0.1476
vn -0.5476 0.0402 0.8358
vn 0.6042 0.2319 -0.7623
vn -0.6534 0.0228 -0.7566
vn 0.3908 0.0641 -0.9182
vn 0.0305 -0.9942 -0.1033
vn -0.0300 0.9947 0.0986
vn -0.0666 0.9911 0.1156
vn 0.0750 -0.9940 -0.0794
vn 0.9870 0.1317 -0.0918
vn -0.8748 0.3266 0.3580
vn 0.8207 0.0575 -0.5685
vn -0.7924 0.0070 0.6099
vn -0.1503 0.9823 -0.1118
vn -0.0140 -0.9945 0.1040
vt 0.750000 0.439089
vt 0.250000 0.432898
vt 0.929834 0.308432
vt 0.423946 0.306518
vt 0.861144 0.097024
vt 0.357505 0.102033
vt 0.638856 0.097024
vt 0.142495 0.102033
vt 0.570166 0.308432
vt 0.076054 0.306519
vt 0.000000 0.750000
vt 1.000000 0.750000
vt 0.800000 0.750000
vt 0.577599 0.765522
vt 0.422209 0.764501
vt 0.200000 0.750000
vt 0.023849 0.899307
vt 0.800000 0.921902
vt 0.600000 0.921902
vt 0.400000 0.921902
vt 0.176151 0.899307
vt 0.800000 0.833881
vt 0.000000 0.000000
vt 0.600000 0.833881
vt 0.400000 0.833881
vt 0.000000 0.000000
vt 0.176151 0.856476
vt 0.023849 0.856476
vt 0.800000 0.654703
vt 0.600000 0.654703
vt 0.400000 0.654703
vt 0.175814 0.628476
vt 0.016901 0.627738
vt 0.800000 0.566326
vt 0.600000 0.566326
vt 0.400000 0.566326
vt 0.177098 0.592605
vt 0.015788 0.593308
vt 0.800000 0.788835
vt 0.577589 0.773258
vt 0.422220 0.774284
vt 0.200000 0.788835
vt 0.000000 0.788835
vt 1.000000 0.788835
vt 0.800000 1.000000
vt 0.478254 0.324164
vt 1.000000 1.000000
vt 0.000000 1.000000
vt 0.250000 0.490000
vt 0.600000 1.000000
vt 0.391068 0.055836
vt 0.400000 1.000000
vt 0.108932 0.055836
vt 0.200000 1.000000
vt 0.021746 0.324164
vt 0.000000 0.500000
vt 1.000000 0.500000
vt 0.750000 0.490000
vt 0.800000 0.500000
vt 0.978254 0.324164
vt 0.600000 0.500000
vt 0.891068 0.055836
vt 0.400000 0.500000
vt 0.608932 0.055836
vt 0.200000 0.500000
vt 0.521746 0.324164
vt 0.600000 0.788835
vt 0.600000 0.750000
vt 0.400000 0.788835
vt 0.400000 0.750000
vt 0.577589 0.773258
vt 0.577599 0.765522
vt 0.422220 0.774284
vt 0.422209 0.764501
vt 0.577599 0.765522
vt 0.422209 0.764501
vt 0.577589 0.773258
vt 0.422220 0.774284
vt 0.577599 0.765522
vt 0.577589 0.773258
vt 0.422220 0.774284
vt 0.422209 0.764501
vt 0.577589 0.773258
vt 0.577599 0.765522
vt 0.422220 0.774284
vt 0.422209 0.764501
vt 1.000000 0.566326
vt 0.000000 0.566326
vt 1.000000 0.654703
vt 0.000000 0.654703
vt 0.200000 0.654703
vt 0.200000 0.566326
vt 0.015788 0.593308
vt 0.016901 0.627738
vt 0.175814 0.628476
vt 0.177098 0.592605
vt 0.015788 0.593308
vt 0.016901 0.627738
vt 0.175814 0.628476
vt 0.177098 0.592605
vt 0.016901 0.627738
vt 0.175814 0.628476
vt 0.177098 0.592605
vt 0.015788 0.593308
vt 0.175814 0.628476
vt 0.177098 0.592605
vt 0.016901 0.627738
vt 0.015788 0.593308
vt 1.000000 0.833881
vt 0.000000 0.000000
vt 0.000000 0.833881
vt 1.000000 0.921902
vt 0.000000 0.921902
vt 0.200000 0.921902
vt 0.000000 0.000000
vt 0.200000 0.833881
vt 0.023849 0.856476
vt 0.023849 0.899307
vt 0.176151 0.899307
vt 0.176151 0.856476
vt 0.023849 0.856476
vt 0.023849 0.899307
vt 0.176151 0.899307
vt 0.176151 0.856476
vt 0.176151 0.899308
vt 0.176151 0.856476
vt 0.023849 0.856476
vt 0.023849 0.899307
vt 0.176151 0.856476
vt 0.023849 0.856476
vt 0.023849 0.899307
vt 0.176151 0.899307
s 0
usemtl Material.001
f 94/112/1 44/47/1 43/45/1 17/18/1
f 17/18/2 43/45/2 45/50/2 18/19/2
f 18/19/3 45/50/3 46/52/3 19/20/3
f 19/20/5 46/52/5 47/54/5 95/114/5
f 95/114/6 47/54/6 44/48/6 94/113/6
f 75/91/8 15/16/8 11/11/8 74/90/8
f 28/31/9 56/70/9 15/16/9 75/91/9
f 27/30/10 54/68/10 56/70/10 28/31/10
f 26/29/11 12/13/11 54/68/11 27/30/11
f 74/89/12 11/12/12 12/13/12 26/29/12
f 110/130/13 109/129/13 100/120/13 97/117/13
f 23/25/14 19/20/14 95/114/14 96/116/14
f 22/24/15 18/19/15 19/20/15 23/25/15
f 21/22/16 17/18/16 18/19/16 22/24/16
f 93/109/17 94/112/17 17/18/17 21/22/17
f 40/44/18 93/109/18 21/22/18 36/39/18
f 36/39/19 21/22/19 22/24/19 53/67/19
f 53/67/20 22/24/20 23/25/20 55/69/20
f 55/69/21 23/25/21 96/116/21 39/42/21
f 39/42/22 96/116/22 93/111/22 40/43/22
f 73/87/23 74/89/23 26/29/23 31/34/23
f 31/34/24 26/29/24 27/30/24 32/35/24
f 32/35/25 27/30/25 28/31/25 33/36/25
f 33/36/26 28/31/26 75/91/26 76/92/26
f 35/38/27 34/37/27 80/96/27 77/93/27
f 52/65/28 76/92/28 73/88/28 48/56/28
f 51/63/29 33/36/29 76/92/29 52/65/29
f 50/61/30 32/35/30 33/36/30 51/63/30
f 49/59/31 31/34/31 32/35/31 50/61/31
f 48/57/32 73/87/32 31/34/32 49/59/32
f 15/16/33 39/42/33 40/43/33 11/11/33
f 56/70/34 55/69/34 39/42/34 15/16/34
f 68/82/35 65/79/35 58/72/35 60/74/35
f 12/13/36 36/39/36 53/67/36 54/68/36
f 11/12/37 40/44/37 36/39/37 12/13/37
f 93/110/38 96/115/38 23/26/38 21/23/38
f 2/2/4 4/4/4 43/46/4 44/49/4
f 4/4/4 6/6/4 45/51/4 43/46/4
f 6/6/4 8/8/4 46/53/4 45/51/4
f 8/8/4 10/10/4 47/55/4 46/53/4
f 10/10/4 2/2/4 44/49/4 47/55/4
f 3/3/7 1/1/7 48/58/7 49/60/7
f 5/5/7 3/3/7 49/60/7 50/62/7
f 7/7/7 5/5/7 50/62/7 51/64/7
f 9/9/7 7/7/7 51/64/7 52/66/7
f 1/1/7 9/9/7 52/66/7 48/58/7
f 37/40/39 13/14/39 54/68/39 53/67/39
f 14/15/40 38/41/40 55/69/40 56/70/40
f 13/14/41 14/15/41 56/70/41 54/68/41
f 38/41/42 37/40/42 53/67/42 55/69/42
f 57/71/43 59/73/43 71/85/43 69/83/43
f 65/79/44 66/80/44 57/71/44 58/72/44
f 66/80/45 67/81/45 59/73/45 57/71/45
f 67/81/46 68/82/46 60/74/46 59/73/46
f 38/41/47 14/15/47 62/76/47 64/78/47
f 37/40/48 38/41/48 64/78/48 63/77/48
f 13/14/49 37/40/49 63/77/49 61/75/49
f 14/15/50 13/14/50 61/75/50 62/76/50
f 64/78/51 62/76/51 68/82/51 67/81/51
f 63/77/52 64/78/52 67/81/52 66/80/52
f 61/75/53 63/77/53 66/80/53 65/79/53
f 62/76/54 61/75/54 65/79/54 68/82/54
f 70/84/55 69/83/55 71/85/55 72/86/55
f 59/73/56 60/74/56 72/86/56 71/85/56
f 60/74/57 58/72/57 70/84/57 72/86/57
f 58/72/58 57/71/58 69/83/58 70/84/58
f 35/38/59 30/33/59 74/90/59 73/88/59
f 30/33/60 29/32/60 75/91/60 74/90/60
f 29/32/61 34/37/61 76/92/61 75/91/61
f 34/37/62 35/38/62 73/88/62 76/92/62
f 86/102/63 85/101/63 82/98/63 83/99/63
f 29/32/64 30/33/64 78/94/64 79/95/64
f 34/37/65 29/32/65 79/95/65 80/96/65
f 30/33/66 35/38/66 77/93/66 78/94/66
f 84/100/67 83/99/67 82/98/67 81/97/67
f 87/103/68 86/102/68 83/99/68 84/100/68
f 85/101/69 88/104/69 81/97/69 82/98/69
f 88/104/70 87/103/70 84/100/70 81/97/70
f 92/108/71 90/106/71 87/103/71 88/104/71
f 91/107/72 92/108/72 88/104/72 85/101/72
f 90/106/73 89/105/73 86/102/73 87/103/73
f 89/105/74 91/107/74 85/101/74 86/102/74
f 79/95/75 78/94/75 91/107/75 89/105/75
f 80/96/76 79/95/76 89/105/76 90/106/76
f 78/94/77 77/93/77 92/108/77 91/107/77
f 77/93/78 80/96/78 90/106/78 92/108/78
f 25/28/79 16/17/79 94/113/79 93/111/79
f 16/17/80 20/21/80 95/114/80 94/113/80
f 20/21/81 24/27/81 96/116/81 95/114/81
f 24/27/82 25/28/82 93/111/82 96/116/82
f 106/126/83 105/125/83 103/123/83 104/124/83
f 112/132/84 111/131/84 98/118/84 99/119/84
f 109/129/85 112/132/85 99/119/85 100/120/85
f 111/131/86 110/130/86 97/117/86 98/118/86
f 104/124/87 103/123/87 102/122/87 101/121/87
f 108/128/88 107/127/88 101/121/88 102/122/88
f 107/127/89 106/126/89 104/124/89 101/121/89
f 105/125/90 108/128/90 102/122/90 103/123/90
f 99/119/91 98/118/91 108/128/91 105/125/91
f 97/117/92 100/120/92 106/126/92 107/127/92
f 98/118/93 97/117/93 107/127/93 108/128/93
f 100/120/94 99/119/94 105/125/94 106/126/94
f 16/17/95 25/28/95 110/130/95 111/131/95
f 24/27/96 20/21/96 112/132/96 109/129/96
f 20/21/97 16/17/97 111/131/97 112/132/97
f 25/28/98 24/27/98 109/129/98 110/130/98
usemtl Material.002
f 4/4/4 2/2/4 10/10/4 8/8/4 6/6/4
f 1/1/7 3/3/7 5/5/7 7/7/7 9/9/7
l 41 42
